<mxfile host="app.diagrams.net" modified="2022-09-17T11:38:03.253Z" agent="5.0 (Macintosh; Intel Mac OS X 10_15_7) AppleWebKit/537.36 (KHTML, like Gecko) Chrome/105.0.0.0 Safari/537.36" etag="yfZoJuiIWyy3GK06tEqE" version="20.3.2" type="github">
  <diagram id="cDsef-phsaKLny-wMa-N" name="페이지-1">
    <mxGraphModel dx="1234" dy="717" grid="1" gridSize="10" guides="1" tooltips="1" connect="1" arrows="1" fold="1" page="1" pageScale="1" pageWidth="1169" pageHeight="827" math="0" shadow="0">
      <root>
        <mxCell id="0" />
        <mxCell id="1" parent="0" />
        <mxCell id="rHpHBB4nsGZ8VB_JChMm-51" value="execute() {&lt;br&gt;&lt;span style=&quot;white-space: pre;&quot;&gt;	&lt;/span&gt;light.off()&lt;br&gt;}" style="rounded=0;whiteSpace=wrap;html=1;align=left;" vertex="1" parent="1">
          <mxGeometry x="855" y="506" width="120" height="60" as="geometry" />
        </mxCell>
        <mxCell id="rHpHBB4nsGZ8VB_JChMm-61" style="edgeStyle=orthogonalEdgeStyle;rounded=0;orthogonalLoop=1;jettySize=auto;html=1;exitX=0.75;exitY=1;exitDx=0;exitDy=0;entryX=0;entryY=0.25;entryDx=0;entryDy=0;dashed=1;" edge="1" parent="1" source="rHpHBB4nsGZ8VB_JChMm-28" target="rHpHBB4nsGZ8VB_JChMm-56">
          <mxGeometry relative="1" as="geometry" />
        </mxCell>
        <mxCell id="rHpHBB4nsGZ8VB_JChMm-62" style="edgeStyle=orthogonalEdgeStyle;rounded=0;orthogonalLoop=1;jettySize=auto;html=1;exitX=0.25;exitY=1;exitDx=0;exitDy=0;entryX=0;entryY=0.5;entryDx=0;entryDy=0;dashed=1;" edge="1" parent="1" source="rHpHBB4nsGZ8VB_JChMm-28" target="rHpHBB4nsGZ8VB_JChMm-42">
          <mxGeometry relative="1" as="geometry">
            <Array as="points">
              <mxPoint x="150" y="534" />
              <mxPoint x="645" y="534" />
              <mxPoint x="645" y="463" />
            </Array>
          </mxGeometry>
        </mxCell>
        <mxCell id="rHpHBB4nsGZ8VB_JChMm-63" style="edgeStyle=orthogonalEdgeStyle;rounded=0;orthogonalLoop=1;jettySize=auto;html=1;exitX=0.25;exitY=1;exitDx=0;exitDy=0;entryX=0;entryY=0.5;entryDx=0;entryDy=0;dashed=1;" edge="1" parent="1" source="rHpHBB4nsGZ8VB_JChMm-28" target="rHpHBB4nsGZ8VB_JChMm-45">
          <mxGeometry relative="1" as="geometry">
            <Array as="points">
              <mxPoint x="125" y="296" />
              <mxPoint x="125" y="564" />
              <mxPoint x="685" y="564" />
              <mxPoint x="685" y="493" />
            </Array>
          </mxGeometry>
        </mxCell>
        <mxCell id="rHpHBB4nsGZ8VB_JChMm-64" style="edgeStyle=orthogonalEdgeStyle;rounded=0;orthogonalLoop=1;jettySize=auto;html=1;exitX=1;exitY=0.25;exitDx=0;exitDy=0;entryX=0;entryY=0.076;entryDx=0;entryDy=0;entryPerimeter=0;dashed=1;" edge="1" parent="1" source="rHpHBB4nsGZ8VB_JChMm-28" target="rHpHBB4nsGZ8VB_JChMm-32">
          <mxGeometry relative="1" as="geometry" />
        </mxCell>
        <mxCell id="rHpHBB4nsGZ8VB_JChMm-28" value="RemoteLoader" style="swimlane;fontStyle=1;childLayout=stackLayout;horizontal=1;startSize=26;fillColor=none;horizontalStack=0;resizeParent=1;resizeParentMax=0;resizeLast=0;collapsible=1;marginBottom=0;" vertex="1" parent="1">
          <mxGeometry x="115" y="244" width="140" height="52" as="geometry" />
        </mxCell>
        <mxCell id="rHpHBB4nsGZ8VB_JChMm-54" style="edgeStyle=orthogonalEdgeStyle;rounded=0;orthogonalLoop=1;jettySize=auto;html=1;exitX=1;exitY=0;exitDx=0;exitDy=0;entryX=0;entryY=0.25;entryDx=0;entryDy=0;dashed=1;" edge="1" parent="1" source="rHpHBB4nsGZ8VB_JChMm-32" target="rHpHBB4nsGZ8VB_JChMm-39">
          <mxGeometry relative="1" as="geometry">
            <Array as="points">
              <mxPoint x="555" y="262" />
              <mxPoint x="620" y="262" />
            </Array>
          </mxGeometry>
        </mxCell>
        <mxCell id="rHpHBB4nsGZ8VB_JChMm-32" value="RemoteLoader" style="swimlane;fontStyle=1;align=center;verticalAlign=top;childLayout=stackLayout;horizontal=1;startSize=26;horizontalStack=0;resizeParent=1;resizeParentMax=0;resizeLast=0;collapsible=1;marginBottom=0;" vertex="1" parent="1">
          <mxGeometry x="395" y="244" width="160" height="164" as="geometry" />
        </mxCell>
        <mxCell id="rHpHBB4nsGZ8VB_JChMm-33" value="onCommands" style="text;strokeColor=none;fillColor=none;align=left;verticalAlign=top;spacingLeft=4;spacingRight=4;overflow=hidden;rotatable=0;points=[[0,0.5],[1,0.5]];portConstraint=eastwest;" vertex="1" parent="rHpHBB4nsGZ8VB_JChMm-32">
          <mxGeometry y="26" width="160" height="26" as="geometry" />
        </mxCell>
        <mxCell id="rHpHBB4nsGZ8VB_JChMm-36" value="offCommands" style="text;strokeColor=none;fillColor=none;align=left;verticalAlign=top;spacingLeft=4;spacingRight=4;overflow=hidden;rotatable=0;points=[[0,0.5],[1,0.5]];portConstraint=eastwest;" vertex="1" parent="rHpHBB4nsGZ8VB_JChMm-32">
          <mxGeometry y="52" width="160" height="26" as="geometry" />
        </mxCell>
        <mxCell id="rHpHBB4nsGZ8VB_JChMm-34" value="" style="line;strokeWidth=1;fillColor=none;align=left;verticalAlign=middle;spacingTop=-1;spacingLeft=3;spacingRight=3;rotatable=0;labelPosition=right;points=[];portConstraint=eastwest;strokeColor=inherit;" vertex="1" parent="rHpHBB4nsGZ8VB_JChMm-32">
          <mxGeometry y="78" width="160" height="8" as="geometry" />
        </mxCell>
        <mxCell id="rHpHBB4nsGZ8VB_JChMm-35" value="setCommand()" style="text;strokeColor=none;fillColor=none;align=left;verticalAlign=top;spacingLeft=4;spacingRight=4;overflow=hidden;rotatable=0;points=[[0,0.5],[1,0.5]];portConstraint=eastwest;" vertex="1" parent="rHpHBB4nsGZ8VB_JChMm-32">
          <mxGeometry y="86" width="160" height="26" as="geometry" />
        </mxCell>
        <mxCell id="rHpHBB4nsGZ8VB_JChMm-37" value="onButtonPushed()" style="text;strokeColor=none;fillColor=none;align=left;verticalAlign=top;spacingLeft=4;spacingRight=4;overflow=hidden;rotatable=0;points=[[0,0.5],[1,0.5]];portConstraint=eastwest;" vertex="1" parent="rHpHBB4nsGZ8VB_JChMm-32">
          <mxGeometry y="112" width="160" height="26" as="geometry" />
        </mxCell>
        <mxCell id="rHpHBB4nsGZ8VB_JChMm-38" value="offButtonPushed()" style="text;strokeColor=none;fillColor=none;align=left;verticalAlign=top;spacingLeft=4;spacingRight=4;overflow=hidden;rotatable=0;points=[[0,0.5],[1,0.5]];portConstraint=eastwest;" vertex="1" parent="rHpHBB4nsGZ8VB_JChMm-32">
          <mxGeometry y="138" width="160" height="26" as="geometry" />
        </mxCell>
        <mxCell id="rHpHBB4nsGZ8VB_JChMm-39" value="&lt;p style=&quot;margin:0px;margin-top:4px;text-align:center;&quot;&gt;&lt;i&gt;&amp;lt;&amp;lt;Interface&amp;gt;&amp;gt;&lt;/i&gt;&lt;br&gt;&lt;b&gt;Command&lt;/b&gt;&lt;/p&gt;&lt;hr size=&quot;1&quot;&gt;&lt;p style=&quot;margin:0px;margin-left:4px;&quot;&gt;&lt;span style=&quot;background-color: initial;&quot;&gt;&lt;i&gt;execute()&lt;/i&gt;&lt;/span&gt;&lt;br&gt;&lt;/p&gt;" style="verticalAlign=top;align=left;overflow=fill;fontSize=12;fontFamily=Helvetica;html=1;" vertex="1" parent="1">
          <mxGeometry x="685" y="244" width="190" height="70" as="geometry" />
        </mxCell>
        <mxCell id="rHpHBB4nsGZ8VB_JChMm-60" style="edgeStyle=orthogonalEdgeStyle;rounded=0;orthogonalLoop=1;jettySize=auto;html=1;exitX=0;exitY=0.25;exitDx=0;exitDy=0;entryX=1.004;entryY=0.122;entryDx=0;entryDy=0;entryPerimeter=0;dashed=1;" edge="1" parent="1" source="rHpHBB4nsGZ8VB_JChMm-40" target="rHpHBB4nsGZ8VB_JChMm-56">
          <mxGeometry relative="1" as="geometry" />
        </mxCell>
        <mxCell id="rHpHBB4nsGZ8VB_JChMm-40" value="LightOnCommand" style="swimlane;fontStyle=0;childLayout=stackLayout;horizontal=1;startSize=26;fillColor=#d5e8d4;horizontalStack=0;resizeParent=1;resizeParentMax=0;resizeLast=0;collapsible=1;marginBottom=0;strokeColor=#82b366;" vertex="1" parent="1">
          <mxGeometry x="675" y="424" width="140" height="52" as="geometry" />
        </mxCell>
        <mxCell id="rHpHBB4nsGZ8VB_JChMm-42" value="execute()" style="text;strokeColor=none;fillColor=none;align=left;verticalAlign=top;spacingLeft=4;spacingRight=4;overflow=hidden;rotatable=0;points=[[0,0.5],[1,0.5]];portConstraint=eastwest;" vertex="1" parent="rHpHBB4nsGZ8VB_JChMm-40">
          <mxGeometry y="26" width="140" height="26" as="geometry" />
        </mxCell>
        <mxCell id="rHpHBB4nsGZ8VB_JChMm-44" value="LightOffCommand" style="swimlane;fontStyle=0;childLayout=stackLayout;horizontal=1;startSize=26;fillColor=#d5e8d4;horizontalStack=0;resizeParent=1;resizeParentMax=0;resizeLast=0;collapsible=1;marginBottom=0;strokeColor=#82b366;" vertex="1" parent="1">
          <mxGeometry x="705" y="454" width="140" height="52" as="geometry" />
        </mxCell>
        <mxCell id="rHpHBB4nsGZ8VB_JChMm-45" value="execute()" style="text;strokeColor=none;fillColor=none;align=left;verticalAlign=top;spacingLeft=4;spacingRight=4;overflow=hidden;rotatable=0;points=[[0,0.5],[1,0.5]];portConstraint=eastwest;" vertex="1" parent="rHpHBB4nsGZ8VB_JChMm-44">
          <mxGeometry y="26" width="140" height="26" as="geometry" />
        </mxCell>
        <mxCell id="rHpHBB4nsGZ8VB_JChMm-46" value="" style="endArrow=none;dashed=1;html=1;rounded=0;exitX=1;exitY=0.5;exitDx=0;exitDy=0;entryX=0.5;entryY=0;entryDx=0;entryDy=0;" edge="1" parent="1" source="rHpHBB4nsGZ8VB_JChMm-45" target="rHpHBB4nsGZ8VB_JChMm-49">
          <mxGeometry width="50" height="50" relative="1" as="geometry">
            <mxPoint x="575" y="544" as="sourcePoint" />
            <mxPoint x="925" y="534" as="targetPoint" />
            <Array as="points">
              <mxPoint x="995" y="494" />
            </Array>
          </mxGeometry>
        </mxCell>
        <mxCell id="rHpHBB4nsGZ8VB_JChMm-49" value="execute() {&lt;br&gt;&lt;span style=&quot;white-space: pre;&quot;&gt;	&lt;/span&gt;light.off()&lt;br&gt;}" style="rounded=0;whiteSpace=wrap;html=1;align=left;" vertex="1" parent="1">
          <mxGeometry x="935" y="524" width="120" height="60" as="geometry" />
        </mxCell>
        <mxCell id="rHpHBB4nsGZ8VB_JChMm-50" value="" style="endArrow=none;dashed=1;html=1;rounded=0;exitX=1;exitY=0.25;exitDx=0;exitDy=0;entryX=0.5;entryY=0;entryDx=0;entryDy=0;" edge="1" parent="1" target="rHpHBB4nsGZ8VB_JChMm-51" source="rHpHBB4nsGZ8VB_JChMm-40">
          <mxGeometry width="50" height="50" relative="1" as="geometry">
            <mxPoint x="835" y="438" as="sourcePoint" />
            <mxPoint x="915" y="479" as="targetPoint" />
            <Array as="points">
              <mxPoint x="915" y="437" />
            </Array>
          </mxGeometry>
        </mxCell>
        <mxCell id="rHpHBB4nsGZ8VB_JChMm-52" value="" style="endArrow=block;dashed=1;endFill=0;endSize=12;html=1;rounded=0;entryX=0.25;entryY=1;entryDx=0;entryDy=0;exitX=0.411;exitY=0;exitDx=0;exitDy=0;exitPerimeter=0;" edge="1" parent="1" source="rHpHBB4nsGZ8VB_JChMm-40" target="rHpHBB4nsGZ8VB_JChMm-39">
          <mxGeometry width="160" relative="1" as="geometry">
            <mxPoint x="733" y="364" as="sourcePoint" />
            <mxPoint x="685" y="434" as="targetPoint" />
            <Array as="points">
              <mxPoint x="733" y="344" />
            </Array>
          </mxGeometry>
        </mxCell>
        <mxCell id="rHpHBB4nsGZ8VB_JChMm-55" value="" style="endArrow=block;dashed=1;endFill=0;endSize=12;html=1;rounded=0;entryX=0.25;entryY=1;entryDx=0;entryDy=0;exitX=0.411;exitY=0;exitDx=0;exitDy=0;exitPerimeter=0;" edge="1" parent="1">
          <mxGeometry width="160" relative="1" as="geometry">
            <mxPoint x="774.54" y="424" as="sourcePoint" />
            <mxPoint x="774.5" y="314" as="targetPoint" />
            <Array as="points">
              <mxPoint x="775" y="344" />
            </Array>
          </mxGeometry>
        </mxCell>
        <mxCell id="rHpHBB4nsGZ8VB_JChMm-56" value="Light" style="swimlane;fontStyle=0;childLayout=stackLayout;horizontal=1;startSize=26;fillColor=none;horizontalStack=0;resizeParent=1;resizeParentMax=0;resizeLast=0;collapsible=1;marginBottom=0;" vertex="1" parent="1">
          <mxGeometry x="405" y="428" width="140" height="78" as="geometry" />
        </mxCell>
        <mxCell id="rHpHBB4nsGZ8VB_JChMm-57" value="on()" style="text;strokeColor=none;fillColor=none;align=left;verticalAlign=top;spacingLeft=4;spacingRight=4;overflow=hidden;rotatable=0;points=[[0,0.5],[1,0.5]];portConstraint=eastwest;" vertex="1" parent="rHpHBB4nsGZ8VB_JChMm-56">
          <mxGeometry y="26" width="140" height="26" as="geometry" />
        </mxCell>
        <mxCell id="rHpHBB4nsGZ8VB_JChMm-58" value="off()" style="text;strokeColor=none;fillColor=none;align=left;verticalAlign=top;spacingLeft=4;spacingRight=4;overflow=hidden;rotatable=0;points=[[0,0.5],[1,0.5]];portConstraint=eastwest;" vertex="1" parent="rHpHBB4nsGZ8VB_JChMm-56">
          <mxGeometry y="52" width="140" height="26" as="geometry" />
        </mxCell>
      </root>
    </mxGraphModel>
  </diagram>
</mxfile>
